<?xml version="1.0" standalone="no"?>
<!DOCTYPE svg PUBLIC "-//W3C//DTD SVG 20010904//EN"
 "http://www.w3.org/TR/2001/REC-SVG-20010904/DTD/svg10.dtd">
<svg version="1.0" xmlns="http://www.w3.org/2000/svg"
 width="600.000000pt" height="600.000000pt" viewBox="0 0 600.000000 600.000000"
 preserveAspectRatio="xMidYMid meet">
<g transform="translate(0.000000,600.000000) scale(0.100000,-0.100000)"
fill="#000000" stroke="none">
<path d="M2487 3964 c-25 -14 -75 -102 -81 -144 -2 -15 -9 -33 -31 -85 -12
-28 -37 -100 -41 -117 -1 -5 -3 -10 -4 -13 -1 -3 -3 -8 -5 -12 -1 -5 -7 -21
-14 -38 -14 -33 -40 -104 -40 -108 0 -1 -5 -15 -11 -32 -7 -16 -29 -77 -50
-135 -21 -58 -64 -175 -95 -260 -66 -179 -69 -191 -61 -225 6 -23 77 -71 89
-59 2 3 187 5 410 4 344 0 407 2 420 14 8 8 18 12 22 8 5 -4 5 -1 1 6 -4 6 -2
12 3 12 14 0 14 87 1 95 -5 3 -10 14 -10 24 0 10 -14 51 -31 92 -17 41 -32 81
-34 89 -2 8 -20 60 -40 115 -20 55 -38 107 -40 116 -2 9 -8 25 -13 35 -6 11 -25
62 -43 114 -17 52 -37 104 -42 115 -6 11 -12 26 -13 33 -4 23 -36 52 -56 52 -21
0 -62 -28 -68 -45 -2 -5 -16 -41 -32 -80 -16 -38 -30 -77 -31 -85 -2 -8 -8 -24
-14 -35 -6 -11 -16 -38 -23 -60 -7 -22 -18 -53 -25 -70 -7 -16 -20 -50 -28 -75
-9 -25 -23 -64 -32 -88 -10 -30 -12 -48 -5 -61 5 -10 6 -21 3 -25 -3 -3 1 -6 11
-6 9 0 15 -4 11 -9 -3 -5 10 -15 29 -21 29 -9 39 -8 60 5 25 17 56 66 56 90 0 7
14 45 30 86 17 41 32 81 33 89 3 15 9 20 28 20 5 0 8 -4 4 -9 -3 -5 -1 -12 5 -16
6 -4 8 -10 5 -15 -3 -5 -1 -17 4 -27 15 -29 42 -98 45 -113 1 -8 16 -52 34 -97
18 -45 32 -87 32 -93 0 -7 -89 -9 -277 -8 -179 2 -277 7 -276 13 4 14 58 164 73
200 6 17 13 41 15 54 1 13 6 26 11 30 5 3 10 15 12 26 2 11 10 31 19 43 8 13 12
26 9 29 -3 3 3 22 13 42 10 20 22 51 26 69 3 18 13 45 21 62 8 16 17 38 19 49 2
11 13 41 24 67 12 25 19 50 16 54 -3 5 -1 10 5 12 5 1 20 35 33 73 l23 70 88 5
c80 5 89 3 99 -15 6 -11 12 -22 12 -25 1 -3 7 -18 14 -35 7 -16 14 -37 16 -45 2
-9 14 -43 28 -78 14 -34 24 -62 21 -62 -2 0 4 -17 15 -39 11 -21 17 -41 14 -45
-4 -3 -1 -6 6 -6 7 0 9 -5 6 -10 -4 -6 0 -22 9 -35 9 -13 16 -31 16 -40 0 -8 4
-23 9 -33 22 -44 41 -94 41 -110 0 -10 6 -26 13 -37 7 -11 31 -72 52 -135 21 -63
41 -117 44 -120 6 -5 9 -15 16 -52 2 -9 10 -29 18 -45 8 -15 22 -55 32 -88 9 -33
20 -64 25 -70 11 -15 34 -88 32 -101 -1 -6 4 -17 12 -23 8 -7 12 -19 9 -27 -3 -8
0 -14 7 -14 6 0 9 -4 6 -9 -3 -4 4 -25 14 -47 11 -21 20 -46 20 -56 0 -9 5 -20 10
-23 6 -4 8 -11 5 -16 -4 -5 -2 -9 4 -9 6 0 7 -7 4 -17 -5 -12 -3 -14 7 -8 9 5 11
4 6 -4 -4 -6 -2 -18 4 -26 6 -8 9 -18 6 -23 -3 -6 0 -14 7 -20 7 -6 14 -24 15 -40
2 -27 -1 -30 -32 -34 -19 -2 -39 -2 -44 0 -6 2 -23 36 -37 75 -15 40 -31 83 -37 97
-6 14 -13 36 -15 50 -2 14 -10 34 -17 45 -7 11 -17 35 -21 53 -4 18 -13 45 -21 60
-8 15 -14 35 -14 45 0 11 -4 15 -12 11 -6 -4 -17 1 -25 12 -13 18 -36 19 -516 22
-360 2 -509 -1 -529 -9 -15 -6 -37 -27 -49 -45 -24 -39 -101 -254 -91 -254 4 0 2
-4 -4 -8 -5 -4 -28 -58 -51 -119 -38 -105 -45 -163 -21 -163 5 0 6 -5 3 -10 -11
-17 36 -26 155 -29 63 -2 131 -4 150 -6 40 -3 105 41 115 78 7 25 42 112 57 140 5
11 7 21 4 24 -3 3 1 18 9 33 18 35 13 64 -17 95 -40 43 -101 26 -133 -36 -9 -16
-13 -29 -9 -29 4 0 2 -6 -3 -12 -6 -7 -18 -37 -28 -65 -19 -53 -19 -53 -61 -53 -60
0 -61 6 -9 125 7 17 17 44 21 60 4 17 8 32 9 35 0 3 7 22 15 43 l14 37 437 0 437
0 12 -32 c7 -18 23 -62 35 -98 86 -249 118 -320 140 -320 8 0 15 -4 15 -10 0 -6 65
-9 168 -9 131 1 170 4 183 15 19 17 39 15 54 -4 13 -16 620 -13 620 3 1 6 6 19 12 30
6 12 10 81 10 173 l0 153 -29 24 -29 25 -346 -3 c-328 -2 -346 -3 -349 -20 -1 -11 -6
-22 -10 -25 -4 -4 -4 1 -1 10 3 9 2 18 -3 20 -5 2 -20 33 -34 71 l-24 67 25 -20 c36
-28 67 -25 97 11 l26 31 0 669 0 670 -31 30 -30 30 -155 -2 c-85 0 -156 -5 -160 -10
-3 -5 -11 -6 -17 -3 -7 4 -9 4 -5 0 4 -5 -2 -17 -13 -29 -18 -20 -19 -37 -19 -301 0
-154 -4 -276 -8 -270 -5 5 -21 45 -37 89 -15 44 -32 86 -38 93 -5 6 -7 12 -4 12 5 0
-26 89 -53 155 -7 17 -15 39 -17 49 -2 11 -8 25 -14 32 -5 7 -12 24 -15 39 -8 47 -54
125 -78 134 -12 5 -92 9 -177 10 -121 0 -160 -3 -182 -15z m367 -34 c8 -8 164 -426
346 -928 320 -880 331 -914 314 -933 -15 -17 -31 -19 -171 -19 l-155 0 -26 28 c-19 19
-49 89 -101 235 l-74 207 -456 0 -456 0 -59 -168 c-33 -92 -61 -173 -64 -179 -3 -10
16 -13 76 -13 l79 0 33 93 c36 101 53 127 83 127 23 0 57 -27 57 -46 0 -7 -18 -63 -41
-126 -58 -161 -54 -158 -244 -158 -126 0 -156 3 -169 16 -9 8 -16 20 -16 25 0 5 40
120 90 256 58 162 97 254 111 266 20 16 60 17 523 17 l503 0 20 -22 c12 -13 53 -111
91 -218 39 -107 74 -203 77 -212 6 -15 20 -18 86 -18 43 0 79 1 79 3 0 1 -137 378
-304 837 l-304 835 -113 0 -112 0 -174 -475 c-95 -261 -173 -476 -173 -477 0 -2 147
-3 326 -3 220 0 323 3 319 10 -11 18 -175 474 -175 487 0 35 -18 3 -49 -85 -71 -203
-93 -253 -115 -261 -28 -11 -65 7 -71 33 -7 29 185 546 208 560 12 8 22 8 34 0 16 -10
301 -769 302 -806 1 -9 -6 -24 -15 -32 -14 -14 -67 -16 -440 -16 -416 0 -424 0 -445
21 -13 13 -18 27 -14 37 4 9 90 247 192 527 222 610 207 573 235 585 13 5 94 8 180 7
125 -2 160 -5 172 -17z m638 3 c17 -15 18 -50 18 -684 l0 -669 -25 -16 c-13 -8 -33 -13
-43 -10 -41 13 -43 52 -40 684 l3 602 -77 0 -78 0 0 -395 c0 -257 4 -395 10 -395 6 0
11 8 11 18 5 55 8 250 9 480 l0 262 45 0 45 0 2 -591 c3 -641 4 -634 -48 -481 -12 37
-28 81 -35 97 -7 17 -14 38 -16 48 -1 10 -10 28 -18 41 -8 12 -12 25 -9 28 3 4 -1 19
-9 35 -8 15 -17 41 -21 57 l-7 30 21 -25 21 -24 -7 25 c-3 14 -28 86 -55 160 l-49 134
0 285 c0 251 2 287 17 303 14 16 33 18 166 18 126 0 153 -3 169 -17z m682 -1545 c13
-18 16 -52 16 -158 0 -197 31 -180 -319 -180 l-287 0 0 38 c0 20 -4 45 -8 55 -8 16 8
17 248 17 l256 0 0 70 0 70 -281 2 -281 3 -19 50 c-10 28 -19 51 -19 53 0 1 153 2 339
2 340 0 340 0 355 -22z m-390 -118 l266 0 0 -40 0 -40 -231 0 c-221 0 -232 -1 -262 -22
-18 -12 -29 -18 -25 -14 3 4 -1 27 -11 49 -10 23 -21 56 -25 72 -6 27 -5 28 7 13 13
-16 39 -18 281 -18z"/>
<path d="M3146 3007 c3 -10 9 -15 12 -12 3 3 0 11 -7 18 -10 9 -11 8 -5 -6z"/>
</g>
</svg>